# xmcd
#
# Track frame offsets:
#	150
#	13445
#	28912
#	43864
#	58103
#	71678
#	83464
#	94341
#	104590
#	115804
#	128807
#	143860
#
# Disc length: 2101 seconds
#
# Revision: 1
# Processed by: cddbd v1.5.2PL0 Copyright (c) Steve Scherf et al.
# Submitted via: audiograbber 1.83.01
#
DISCID=af08330c
DTITLE=VARIOS - POR SIEMPRE BOLEROS VOL 10
DYEAR=2006
DGENRE=BOLERO
TTITLE0=OLGA GUILLOT - LA GLORIA ERES TU
TTITLE1=PEDRO VARGAS - QUIZA,QUIZA,QUIZA
TTITLE2=VOCES DEL VOLERO - SE TE OLVIDA
TTITLE3=LUCHO BARRIOS - LUZ Y SOMBRA
TTITLE4=LOS PANCHOS - NO ME QUIERAS TANTO
TTITLE5=LOS DIAMANTES DEL SOL - VOLVI LA ESPALDA
TTITLE6=TRIO AZUL - ELLA 
TTITLE7=JULIO JARAMILLO - LO VI EN TUS OJOS 
TTITLE8=MONCHO - VOY A APAGAR LA LUZ
TTITLE9=LEO MARINI - LIBRE DE PECADO
TTITLE10=LOS 3 ROMANTICOS - MIA,CONTIGO APRENDI
TTITLE11=TITO RODRIGUEZ - NO VALE LA PENA
EXTD=
EXTT0=
EXTT1=
EXTT2=
EXTT3=
EXTT4=
EXTT5=
EXTT6=
EXTT7=
EXTT8=
EXTT9=
EXTT10=
EXTT11=
PLAYORDER=
